<svg width="27" height="41" viewBox="0 0 27 41" fill="none" xmlns="http://www.w3.org/2000/svg">
<path d="M1.47217 20.8049C-3.08836 11.2704 3.51238 0 13.4998 0C23.4857 0 30.0894 11.2689 25.5274 20.8049L25.5198 20.8218L25.5123 20.8386L18.0058 37.9399C16.2155 42.0177 10.7871 42.0223 8.99379 37.9399L1.48881 20.8386L1.48123 20.8218L1.47217 20.8049ZM19.2008 14.3254C19.2008 11.0726 16.6911 8.34128 13.4998 8.34128C10.3085 8.34128 7.79875 11.0726 7.79875 14.3254C7.79875 17.5767 10.3085 20.308 13.4998 20.308C16.6911 20.308 19.2008 17.5767 19.2008 14.3254Z" fill="#FF8A00"/>
</svg>
